<?xml version="1.0" encoding="UTF-8"?>
<!-- Generator: visioncortex VTracer 0.6.3 -->
<svg version="1.1" xmlns="http://www.w3.org/2000/svg" width="200" height="200">
<path d="M0 0 C0.67 0.4 1.35 0.8 2.04 1.21 C3.43 2.04 4.82 2.89 6.2 3.73 C10.65 6.35 14.1 7.59 19.26 7.97 C20.38 13.72 20.38 13.72 19.26 15.97 C18.6 15.97 17.94 15.97 17.26 15.97 C17.33 16.62 17.39 17.28 17.46 17.95 C19.1 36.04 19.1 36.04 16.13 40.76 C12.74 43.89 8.51 45.37 4.26 46.97 C2.6 47.96 0.95 48.98 -0.68 50.03 C-3.16 51.58 -4.43 51.97 -7.38 51.93 C-12.23 50.54 -16.25 48.06 -20.55 45.47 C-21.86 44.7 -21.86 44.7 -23.19 43.92 C-29.55 40.16 -29.55 40.16 -30.74 38.97 C-32.41 29.71 -33.47 19.06 -30.74 9.97 C-23.93 1.27 -10.29 -6.27 0 0 Z M-15.37 6.47 C-16.07 6.9 -16.78 7.33 -17.51 7.77 C-19.25 8.83 -21 9.9 -22.74 10.97 C-21.36 15.1 -18.59 16.22 -14.99 18.28 C-14.06 18.86 -14.06 18.86 -13.11 19.45 C-9.37 21.62 -9.37 21.62 -5.18 21.42 C-4.38 20.94 -3.57 20.46 -2.74 19.97 C-1.2 19.15 -1.2 19.15 0.37 18.31 C1.43 17.7 2.48 17.1 3.57 16.47 C4.64 15.86 5.71 15.25 6.81 14.62 C7.62 14.08 8.43 13.53 9.26 12.97 C9.26 12.31 9.26 11.65 9.26 10.97 C6.83 9.33 4.41 7.82 1.88 6.34 C1.18 5.92 0.49 5.5 -0.23 5.07 C-7.13 0.99 -8.88 2.48 -15.37 6.47 Z M-26.74 15.97 C-27.8 22.52 -28.85 29.56 -26.74 35.97 C-22.44 40.98 -15.86 43.77 -9.74 45.97 C-9.41 45.97 -9.08 45.97 -8.74 45.97 C-7.69 39.42 -6.63 32.38 -8.74 25.97 C-13.04 20.95 -19.62 18.17 -25.74 15.97 C-26.07 15.97 -26.4 15.97 -26.74 15.97 Z M-3.32 24.14 C-7.47 29.48 -5.75 37.98 -4.98 44.28 C-4.9 44.83 -4.82 45.39 -4.74 45.97 C-3.24 45.25 -1.74 44.51 -0.24 43.78 C1.01 43.17 1.01 43.17 2.29 42.55 C3.27 42.03 4.25 41.51 5.26 40.97 C5.95 40.66 6.65 40.34 7.37 40.02 C9.68 38.85 11.43 37.81 13.26 35.97 C14.23 32.65 14.02 29.58 13.76 26.16 C13.7 24.83 13.7 24.83 13.65 23.48 C13.55 21.31 13.41 19.14 13.26 16.97 C7.25 16.97 1.25 20.35 -3.32 24.14 Z " fill="#008BFE" transform="translate(106.7421875,40.03125)"/>
<path d="M0 0 C2 2 2 2 2.25 5 C2 8 2 8 0 10 C-0.87 9.95 -1.74 9.9 -2.64 9.84 C-7.25 10.06 -9.96 12.02 -13.75 14.5 C-20.79 19 -20.79 19 -23 19 C-23.14 19.64 -23.29 20.28 -23.44 20.94 C-24 23 -24 23 -25 24 C-25.1 25.37 -25.14 26.75 -25.15 28.12 C-25.15 29 -25.16 29.87 -25.16 30.77 C-25.17 31.72 -25.17 32.67 -25.17 33.65 C-25.17 34.62 -25.17 35.59 -25.18 36.59 C-25.18 38.65 -25.19 40.71 -25.19 42.76 C-25.19 45.92 -25.21 49.08 -25.22 52.23 C-25.23 54.23 -25.23 56.22 -25.23 58.21 C-25.24 59.16 -25.24 60.11 -25.25 61.09 C-25.25 61.97 -25.25 62.85 -25.24 63.75 C-25.25 64.91 -25.25 64.91 -25.25 66.1 C-25.17 68.24 -25.17 68.24 -23 70 C-22.62 72.44 -22.62 72.44 -23 75 C-24.69 76.94 -24.69 76.94 -27 78 C-29.69 77.5 -29.69 77.5 -32 76 C-32.94 73.56 -32.94 73.56 -33 71 C-32.34 70.01 -31.68 69.02 -31 68 C-30.7 65.94 -30.7 65.94 -30.74 63.65 C-30.73 62.78 -30.73 61.9 -30.72 61 C-30.73 60.06 -30.73 59.12 -30.73 58.15 C-30.73 57.18 -30.73 56.22 -30.73 55.22 C-30.73 53.17 -30.73 51.13 -30.74 49.08 C-30.75 45.95 -30.74 42.81 -30.73 39.67 C-30.73 37.68 -30.73 35.7 -30.73 33.71 C-30.73 32.77 -30.73 31.83 -30.72 30.86 C-30.73 29.99 -30.73 29.12 -30.74 28.22 C-30.74 27.45 -30.74 26.68 -30.75 25.89 C-30.84 23.76 -30.84 23.76 -33 22 C-33.25 19.5 -33.25 19.5 -33 17 C-31 15 -31 15 -27.86 14.64 C-23.21 13.87 -20.14 12.15 -16.19 9.69 C-15.52 9.3 -14.85 8.91 -14.17 8.5 C-10.69 6.39 -8.47 4.84 -7 1 C-4.49 -0.26 -2.78 -0.21 0 0 Z " fill="#008DFC" transform="translate(130,96)"/>
<path d="M0 0 C2.44 0.81 2.44 0.81 4.44 2.81 C4.69 5.31 4.69 5.31 4.44 7.81 C3.78 8.47 3.12 9.13 2.44 9.81 C2.21 12.24 2.21 12.24 2.34 15.05 C2.34 16.62 2.34 16.62 2.35 18.23 C2.37 20.44 2.41 22.64 2.49 24.85 C2.43 32.73 2.43 32.73 -0.38 35.78 C-2.71 37.35 -5.03 38.61 -7.56 39.81 C-8.81 40.51 -10.05 41.22 -11.29 41.93 C-12.39 42.51 -13.49 43.09 -14.62 43.69 C-15.75 44.28 -16.88 44.88 -18.04 45.49 C-18.87 45.93 -19.7 46.36 -20.56 46.81 C-20.62 50.71 -20.66 54.6 -20.69 58.5 C-20.7 59.6 -20.72 60.71 -20.74 61.84 C-20.75 63.44 -20.75 63.44 -20.76 65.07 C-20.77 66.54 -20.77 66.54 -20.79 68.04 C-20.55 70.98 -19.66 73.1 -18.56 75.81 C-19.62 78.12 -19.62 78.12 -21.56 79.81 C-24.06 80.31 -24.06 80.31 -26.56 79.81 C-28.5 78.12 -28.5 78.12 -29.56 75.81 C-29.26 75.06 -28.95 74.31 -28.64 73.53 C-27.43 70.48 -27.34 68.29 -27.36 65.03 C-27.35 63.94 -27.34 62.85 -27.32 61.73 C-27.32 59.45 -27.32 57.17 -27.35 54.89 C-27.22 46.61 -27.22 46.61 -24.07 42.78 C-20.91 40.76 -17.42 39.38 -13.99 37.88 C-10 36.03 -6.43 34.23 -3.56 30.81 C-1.44 24.33 -1.92 16.4 -3.56 9.81 C-4.22 9.15 -4.88 8.49 -5.56 7.81 C-5.93 4.94 -5.94 3.4 -4.38 0.94 C-2.56 -0.19 -2.56 -0.19 0 0 Z " fill="#008CFE" transform="translate(61.5625,55.1875)"/>
<path d="M0 0 C2.44 0.81 2.44 0.81 4.44 2.81 C3.88 7.37 3.88 7.37 2.44 8.81 C2.35 10.53 2.33 12.26 2.33 13.98 C2.31 15.57 2.31 15.57 2.29 17.19 C2.26 19.42 2.26 21.66 2.27 23.89 C2.11 32 2.11 32 -1.06 35.84 C-3.53 37.43 -6.16 38.54 -8.87 39.68 C-13.68 41.71 -18.24 43.65 -21.56 47.81 C-23.73 54.95 -23.21 63.57 -21.56 70.81 C-20.9 71.47 -20.24 72.13 -19.56 72.81 C-19.31 75.31 -19.31 75.31 -19.56 77.81 C-21.56 79.81 -21.56 79.81 -24 80.12 C-26.56 79.81 -26.56 79.81 -28.44 78.62 C-29.56 76.81 -29.56 76.81 -29.31 74.19 C-28.56 71.81 -28.56 71.81 -27.56 70.81 C-27.51 68.96 -27.53 67.1 -27.56 65.24 C-27.56 64.1 -27.56 62.95 -27.56 61.78 C-27.56 59.36 -27.59 56.95 -27.66 54.53 C-27.57 45.93 -27.57 45.93 -24.72 42.78 C-22.4 41.22 -20.09 40 -17.56 38.81 C-16.41 38.12 -15.26 37.42 -14.13 36.7 C-13.14 36.12 -12.15 35.54 -11.12 34.94 C-10.12 34.34 -9.11 33.75 -8.07 33.13 C-5.56 31.81 -5.56 31.81 -3.56 31.81 C-3.7 28 -3.85 24.19 -4 20.38 C-4.04 19.29 -4.08 18.2 -4.12 17.08 C-4.16 16.04 -4.2 15.01 -4.25 13.94 C-4.28 12.98 -4.32 12.02 -4.36 11.04 C-4.32 8.84 -4.32 8.84 -5.56 7.81 C-5.86 4.98 -5.92 3.37 -4.38 0.94 C-2.56 -0.19 -2.56 -0.19 0 0 Z " fill="#008CFE" transform="translate(158.5625,80.1875)"/>
<path d="M0 0 C2.5 0.25 2.5 0.25 4.5 2.25 C4.69 5.31 4.69 5.31 4.5 8.25 C4.17 8.58 3.84 8.91 3.5 9.25 C3.39 11.89 3.34 14.51 3.33 17.15 C3.33 17.95 3.33 18.74 3.32 19.56 C3.32 21.24 3.31 22.92 3.31 24.6 C3.31 27.17 3.29 29.75 3.28 32.33 C3.27 33.96 3.27 35.59 3.27 37.21 C3.26 37.99 3.26 38.76 3.25 39.56 C3.1 43.87 3.1 43.87 5.5 47.25 C5.17 50.55 4.88 51.87 2.5 54.25 C0 54.5 0 54.5 -2.5 54.25 C-4.5 52.25 -4.5 52.25 -4.69 49.19 C-4.5 46.25 -4.5 46.25 -3.5 45.25 C-3.39 42.61 -3.34 39.99 -3.33 37.35 C-3.33 36.55 -3.33 35.76 -3.32 34.94 C-3.32 33.26 -3.31 31.58 -3.31 29.9 C-3.31 27.33 -3.29 24.75 -3.28 22.17 C-3.27 20.54 -3.27 18.91 -3.27 17.29 C-3.26 16.12 -3.26 16.12 -3.25 14.94 C-3.1 10.63 -3.1 10.63 -5.5 7.25 C-5.09 3.15 -4.53 0.45 0 0 Z " fill="#008DFB" transform="translate(68.5,97.75)"/>
<path d="M0 0 C1.32 0 2.64 0 4 0 C4.01 0.55 4.02 1.09 4.02 1.66 C4.11 7.33 4.21 13.01 4.32 18.69 C4.36 20.81 4.39 22.93 4.42 25.05 C4.47 28.09 4.53 31.14 4.59 34.18 C4.6 35.13 4.61 36.08 4.62 37.06 C4.64 37.95 4.66 38.83 4.68 39.73 C4.69 40.51 4.71 41.29 4.72 42.09 C4.84 44.24 4.84 44.24 7 46 C7.38 48.44 7.38 48.44 7 51 C5.31 52.94 5.31 52.94 3 54 C0.31 53.5 0.31 53.5 -2 52 C-2.94 49.56 -2.94 49.56 -3 47 C-2.34 46.01 -1.68 45.02 -1 44 C-0.67 41.92 -0.67 41.92 -0.68 39.62 C-0.66 38.74 -0.64 37.86 -0.62 36.95 C-0.61 36 -0.6 35.06 -0.59 34.08 C-0.57 33.11 -0.55 32.14 -0.53 31.14 C-0.47 28.03 -0.42 24.92 -0.38 21.81 C-0.34 19.71 -0.3 17.6 -0.26 15.49 C-0.16 10.33 -0.08 5.16 0 0 Z " fill="#008CFE" transform="translate(100,120)"/>
<path d="M0 0 C4.42 0.42 7.56 1.6 11.36 3.84 C12.33 4.41 13.3 4.98 14.3 5.56 C15.29 6.16 16.29 6.76 17.31 7.38 C18.83 8.26 18.83 8.26 20.38 9.16 C27.87 13.62 27.87 13.62 29 17 C26 18 26 18 23.72 16.9 C22.85 16.35 21.97 15.79 21.07 15.22 C20.11 14.62 19.15 14.03 18.16 13.42 C16.14 12.14 14.13 10.86 12.11 9.58 C11.15 8.99 10.19 8.39 9.2 7.78 C8.32 7.23 7.44 6.67 6.54 6.1 C3.43 4.75 2.18 4.92 -1 6 C-3.5 7.22 -3.5 7.22 -5.98 8.76 C-6.89 9.3 -7.81 9.84 -8.76 10.4 C-10.68 11.56 -12.6 12.71 -14.52 13.87 C-15.43 14.41 -16.35 14.95 -17.29 15.51 C-18.12 16.01 -18.95 16.51 -19.81 17.03 C-22 18 -22 18 -25 17 C-23.53 13.13 -21.64 11.92 -18.03 10.02 C-17.05 9.5 -16.06 8.97 -15.05 8.43 C-14.02 7.9 -13 7.36 -11.94 6.81 C-9.9 5.74 -7.87 4.66 -5.84 3.58 C-4.94 3.11 -4.03 2.64 -3.1 2.15 C-1.08 1.17 -1.08 1.17 0 0 Z " fill="#00CEFF" transform="translate(98,11)"/>
<path d="M0 0 C7.04 0.43 12.31 4.57 18.1 8.23 C18.91 8.72 19.73 9.22 20.57 9.73 C21.3 10.19 22.03 10.65 22.78 11.12 C25.66 12.26 27.07 11.93 30 11 C32.38 9.9 32.38 9.9 34.72 8.5 C35.59 8 36.46 7.51 37.35 7 C39.16 5.96 40.97 4.91 42.78 3.86 C43.65 3.37 44.52 2.88 45.41 2.37 C46.59 1.69 46.59 1.69 47.79 0.99 C50 0 50 0 54 0 C51.76 5.88 45.9 7.9 40.69 10.81 C39.64 11.42 38.6 12.03 37.52 12.66 C36.51 13.23 35.49 13.81 34.45 14.39 C33.06 15.18 33.06 15.18 31.65 15.98 C28.49 17.2 27.18 17.05 24 16 C20.16 14.27 16.5 12.21 12.81 10.19 C11.8 9.65 10.79 9.12 9.75 8.57 C8.79 8.04 7.82 7.52 6.83 6.98 C5.95 6.51 5.07 6.03 4.17 5.54 C1.83 3.88 1.02 2.65 0 0 Z " fill="#00CEFF" transform="translate(73,172)"/>
<path d="M0 0 C0.66 0 1.32 0 2 0 C2.32 4.41 2.56 8.81 2.71 13.23 C2.78 14.73 2.87 16.23 2.98 17.72 C3.35 22.75 3.4 27.13 2 32 C-1.9 35.83 -5.99 37.78 -11 40 C-12.28 40.76 -13.55 41.53 -14.79 42.35 C-15.72 42.91 -16.66 43.48 -17.62 44.06 C-18.59 44.65 -19.55 45.24 -20.54 45.85 C-23 47 -23 47 -26 46 C-25.67 45.01 -25.34 44.02 -25 43 C-22.79 41.93 -22.79 41.93 -19.91 40.88 C-10.05 36.81 -10.05 36.81 -2 30 C0.87 21.57 0.01 12.31 -0.84 3.57 C-0.89 2.72 -0.95 1.87 -1 1 C-0.67 0.67 -0.34 0.34 0 0 Z " fill="#00CFFF" transform="translate(175,113)"/>
<path d="M0 0 C0.99 0.33 1.98 0.66 3 1 C2.9 1.81 2.81 2.61 2.71 3.44 C1.84 12.26 1.02 21.52 4 30 C10.19 37.08 19.35 40.74 28 44 C27.67 44.99 27.34 45.98 27 47 C20.94 45.4 15.98 42.18 10.69 38.94 C9.77 38.38 8.85 37.83 7.9 37.26 C1.17 33.17 1.17 33.17 0 32 C-0.09 29.62 -0.12 27.28 -0.1 24.9 C-0.1 24.19 -0.09 23.48 -0.09 22.75 C-0.09 20.48 -0.08 18.21 -0.06 15.94 C-0.06 14.4 -0.05 12.86 -0.05 11.33 C-0.04 7.55 -0.02 3.78 0 0 Z " fill="#00CFFF" transform="translate(23,113)"/>
<path d="M0 0 C-0.33 0.99 -0.66 1.98 -1 3 C-3.21 4.07 -3.21 4.07 -6.09 5.12 C-15.95 9.19 -15.95 9.19 -24 16 C-27.14 25.15 -26.05 35.52 -25 45 C-26.48 45.5 -26.48 45.5 -28 46 C-28.32 41.59 -28.56 37.19 -28.71 32.77 C-28.78 31.27 -28.87 29.77 -28.98 28.28 C-29.35 23.25 -29.4 18.87 -28 14 C-24.1 10.17 -20.01 8.22 -15 6 C-13.72 5.24 -12.45 4.47 -11.21 3.65 C-9.81 2.8 -9.81 2.8 -8.38 1.94 C-7.41 1.35 -6.45 0.76 -5.46 0.15 C-3 -1 -3 -1 0 0 Z " fill="#00CEFF" transform="translate(51,41)"/>
<path d="M0 0 C6.06 1.6 11.02 4.82 16.31 8.06 C17.69 8.89 17.69 8.89 19.1 9.74 C25.83 13.83 25.83 13.83 27 15 C27.09 17.38 27.12 19.72 27.1 22.1 C27.1 22.81 27.09 23.52 27.09 24.25 C27.09 26.52 27.08 28.79 27.06 31.06 C27.06 32.6 27.05 34.14 27.05 35.67 C27.04 39.45 27.02 43.22 27 47 C25.51 46.5 25.51 46.5 24 46 C24.08 45.19 24.17 44.38 24.26 43.54 C26.03 28.12 26.03 28.12 20.83 14.4 C15.49 10.25 9.53 7.47 3.23 5.07 C1 4 1 4 -1 1 C-0.67 0.67 -0.34 0.34 0 0 Z " fill="#00CEFF" transform="translate(150,40)"/>
<path d="M0 0 C2.44 0.81 2.44 0.81 4.44 2.81 C4.69 5.31 4.69 5.31 4.44 7.81 C2.44 9.81 2.44 9.81 -0.56 10.06 C-3.56 9.81 -3.56 9.81 -5.56 7.81 C-5.93 4.94 -5.94 3.4 -4.38 0.94 C-2.56 -0.19 -2.56 -0.19 0 0 Z " fill="#19C579" transform="translate(61.5625,55.1875)"/>
<path d="M0 0 C2 2 2 2 2.25 5 C2 8 2 8 0 10 C-2.44 10.44 -2.44 10.44 -5 10 C-7.08 7.5 -8.09 6.04 -7.81 2.75 C-6.22 -0.68 -3.39 -0.25 0 0 Z " fill="#19C678" transform="translate(130,96)"/>
<path d="M0 0 C2.38 1.38 2.38 1.38 3.31 3.81 C3.38 6.38 3.38 6.38 1.38 9.38 C-1.62 9.69 -1.62 9.69 -4.62 9.38 C-5.28 8.72 -5.94 8.06 -6.62 7.38 C-6.25 3.75 -6.25 3.75 -5.62 0.38 C-2.62 -0.62 -2.62 -0.62 0 0 Z " fill="#1AC577" transform="translate(157.625,128.625)"/>
<path d="M0 0 C2.44 0.81 2.44 0.81 4.44 2.81 C4.11 6.11 3.81 7.44 1.44 9.81 C-1.06 10.06 -1.06 10.06 -3.56 9.81 C-5.56 7.81 -5.56 7.81 -5.88 5.38 C-5.56 2.81 -5.56 2.81 -4.38 0.94 C-2.56 -0.19 -2.56 -0.19 0 0 Z " fill="#19C57A" transform="translate(158.5625,80.1875)"/>
<path d="M0 0 C3 -0.31 3 -0.31 6 0 C8 2 8 2 8.38 4.44 C8 7 8 7 6.31 8.94 C4 10 4 10 1.31 9.5 C-1 8 -1 8 -1.94 5.56 C-2 3 -2 3 0 0 Z " fill="#19C578" transform="translate(99,164)"/>
<path d="M0 0 C3.56 0.19 3.56 0.19 5.56 2.19 C5.23 5.48 4.94 6.81 2.56 9.19 C0.06 9.44 0.06 9.44 -2.44 9.19 C-4.44 7.19 -4.44 7.19 -4.62 4.12 C-4.36 -0.09 -4.31 0.23 0 0 Z " fill="#19C678" transform="translate(68.4375,142.8125)"/>
<path d="M0 0 C2.31 0 4.62 0 7 0 C8.19 2.25 8.19 2.25 9 5 C7.94 7.31 7.94 7.31 6 9 C3.5 9.5 3.5 9.5 1 9 C-0.94 7.31 -0.94 7.31 -2 5 C-1.19 2.25 -1.19 2.25 0 0 Z " fill="#1AC578" transform="translate(34,126)"/>
<path d="M0 0 C2.5 0.25 2.5 0.25 4.5 2.25 C4.69 5.31 4.69 5.31 4.5 8.25 C3.5 9.25 3.5 9.25 0.06 9.44 C-3.5 9.25 -3.5 9.25 -5.5 7.25 C-5.09 3.15 -4.53 0.45 0 0 Z " fill="#19C677" transform="translate(68.5,97.75)"/>
<path d="M0 0 C3.06 0.19 3.06 0.19 5.06 2.19 C5.31 4.69 5.31 4.69 5.06 7.19 C3.06 9.19 3.06 9.19 0.62 9.5 C-1.94 9.19 -1.94 9.19 -3.81 8 C-4.94 6.19 -4.94 6.19 -4.69 3.56 C-3.64 0.23 -3.64 0.23 0 0 Z " fill="#1AC678" transform="translate(133.9375,150.8125)"/>
<path d="M0 0 C2.56 0.38 2.56 0.38 4.44 2.12 C5.56 4.38 5.56 4.38 5.31 6.56 C4.56 8.38 4.56 8.38 3.56 9.38 C0.62 9.56 0.62 9.56 -2.44 9.38 C-4.44 7.38 -4.44 7.38 -4.69 4.88 C-4.34 1.42 -3.42 0.53 0 0 Z " fill="#19C579" transform="translate(101.4375,110.625)"/>
<path d="M0 0 C3.12 0.38 3.12 0.38 6 1 C7.33 6.45 7.33 6.45 5.88 8.88 C3.46 10.32 1.76 10.22 -1 10 C-0.34 8.35 0.32 6.7 1 5 C-0.32 5.33 -1.64 5.66 -3 6 C-2.43 3.13 -2.14 2.14 0 0 Z " fill="#18C182" transform="translate(120,47)"/>
</svg>
